<svg width="16" height="16" viewBox="0 0 16 16" fill="none" xmlns="http://www.w3.org/2000/svg">
<path d="M14.2222 13.311V13.1902C15.2658 12.7546 16 11.7244 16 10.5235V2.88887C16 2.1227 15.6956 1.3879 15.1539 0.846132C14.6121 0.304363 13.8773 6.15638e-08 13.1111 6.15638e-08H5.55556C4.94469 -0.000126012 4.34951 0.193386 3.85553 0.552733C3.36154 0.912081 2.99418 1.41877 2.80622 1.99999H2.62756C1.81689 1.99999 1.12711 2.28532 0.652444 2.84799C0.192 3.39287 0 4.11909 0 4.88886V12.6666C0 13.6088 0.340445 14.4568 0.986667 15.0666C1.632 15.6737 2.52711 15.9955 3.55556 15.9955H7.04L10.6631 15.9999H10.6649C11.5324 16.0044 12.392 15.8221 13.0587 15.3955C13.752 14.951 14.2222 14.2444 14.2222 13.311ZM2.62756 3.33332H2.66667V10.5226C2.66667 11.2888 2.97103 12.0236 3.5128 12.5654C4.05457 13.1071 4.78937 13.4115 5.55556 13.4115H12.8853C12.8569 13.783 12.6702 14.0604 12.3396 14.2719C11.9547 14.519 11.3707 14.6701 10.6702 14.6666H10.6667L7.03822 14.6622H3.55556C2.80622 14.6622 2.25778 14.431 1.90222 14.0959C1.54844 13.7635 1.33333 13.2799 1.33333 12.6666V4.88886C1.33333 4.32442 1.47556 3.94042 1.67111 3.70754C1.85333 3.49243 2.144 3.33332 2.62756 3.33332ZM8.01956 3.1111H12.2222C12.399 3.1111 12.5686 3.18133 12.6936 3.30636C12.8187 3.43138 12.8889 3.60095 12.8889 3.77776V7.98129C12.8889 8.1581 12.8187 8.32767 12.6936 8.4527C12.5686 8.57772 12.399 8.64796 12.2222 8.64796C12.0454 8.64796 11.8758 8.57772 11.7508 8.4527C11.6258 8.32767 11.5556 8.1581 11.5556 7.98129V5.38664L6.91556 10.0266C6.85403 10.0903 6.78044 10.141 6.69909 10.1759C6.61774 10.2108 6.53025 10.2292 6.44173 10.2299C6.35321 10.2306 6.26543 10.2137 6.18352 10.1801C6.1016 10.1466 6.02719 10.0971 5.96463 10.0344C5.90206 9.97181 5.85259 9.89735 5.81911 9.8154C5.78563 9.73346 5.7688 9.64566 5.76961 9.55714C5.77042 9.46863 5.78886 9.38115 5.82383 9.29984C5.85881 9.21852 5.90963 9.14498 5.97333 9.08351L10.6133 4.44442H8.01956C7.84274 4.44442 7.67318 4.37418 7.54815 4.24916C7.42313 4.12414 7.35289 3.95457 7.35289 3.77776C7.35289 3.60095 7.42313 3.43138 7.54815 3.30636C7.67318 3.18133 7.84274 3.1111 8.01956 3.1111Z" fill="white"/>
</svg>
