<svg width="30" height="31" viewBox="0 0 30 31" fill="none" xmlns="http://www.w3.org/2000/svg">
<path d="M8.78756 0.605151C7.19156 0.680451 6.10166 0.935151 5.14886 1.30955C4.16276 1.69385 3.32696 2.20955 2.49536 3.04415C1.66376 3.87875 1.15166 4.71515 0.770063 5.70275C0.400763 6.65765 0.150563 7.74845 0.0800633 9.34535C0.0095633 10.9423 -0.00603671 11.4556 0.00176329 15.529C0.00956329 19.6024 0.0275633 20.113 0.104963 21.7132C0.181163 23.3089 0.434963 24.3985 0.809363 25.3516C1.19426 26.3377 1.70936 27.1732 2.54426 28.0051C3.37916 28.837 4.21496 29.3479 5.20496 29.7301C6.15896 30.0988 7.25006 30.3502 8.84666 30.4201C10.4433 30.49 10.9572 30.5062 15.0294 30.4984C19.1016 30.4906 19.6143 30.4726 21.2142 30.3967C22.8141 30.3208 23.898 30.0652 24.8514 29.6926C25.8375 29.3068 26.6736 28.7926 27.5049 27.9574C28.3362 27.1222 28.848 26.2852 29.2293 25.297C29.5989 24.343 29.85 23.2519 29.9193 21.6565C29.9892 20.0554 30.0057 19.5442 29.9979 15.4714C29.9901 11.3986 29.9718 10.888 29.8959 9.28835C29.82 7.68875 29.5659 6.60245 29.1918 5.64875C28.8063 4.66265 28.2918 3.82775 27.4572 2.99525C26.6226 2.16275 25.785 1.65125 24.7971 1.27085C23.8425 0.901551 22.752 0.649851 21.1554 0.580851C19.5588 0.511851 19.0449 0.494151 14.9712 0.501951C10.8975 0.509751 10.3875 0.527151 8.78756 0.605151ZM8.96276 27.7216C7.50026 27.658 6.70616 27.415 6.17696 27.2116C5.47616 26.9416 4.97696 26.6152 4.44956 26.0929C3.92216 25.5706 3.59816 25.0696 3.32456 24.3703C3.11906 23.8411 2.87156 23.0479 2.80316 21.5854C2.72876 20.0047 2.71316 19.5301 2.70446 15.5254C2.69576 11.5207 2.71106 11.0467 2.78036 9.46535C2.84276 8.00405 3.08726 7.20905 3.29036 6.68015C3.56036 5.97845 3.88556 5.48015 4.40906 4.95305C4.93256 4.42595 5.43206 4.10135 6.13196 3.82775C6.66056 3.62135 7.45376 3.37595 8.91566 3.30635C10.4976 3.23135 10.9716 3.21635 14.9757 3.20765C18.9798 3.19895 19.455 3.21395 21.0375 3.28355C22.4988 3.34715 23.2941 3.58925 23.8224 3.79355C24.5235 4.06355 25.0224 4.38785 25.5495 4.91225C26.0766 5.43665 26.4015 5.93435 26.6751 6.63575C26.8818 7.16285 27.1272 7.95575 27.1962 9.41855C27.2715 11.0005 27.2886 11.4748 27.2958 15.4786C27.303 19.4824 27.2889 19.9579 27.2196 21.5386C27.1557 23.0011 26.9133 23.7955 26.7096 24.3253C26.4396 25.0258 26.1141 25.5253 25.5903 26.0521C25.0665 26.5789 24.5676 26.9035 23.8674 27.1771C23.3394 27.3832 22.5453 27.6292 21.0846 27.6988C19.5027 27.7732 19.0287 27.7888 15.0231 27.7975C11.0175 27.8062 10.545 27.79 8.96306 27.7216M21.1911 7.48325C21.1917 7.83928 21.2978 8.18714 21.4961 8.48283C21.6944 8.77852 21.976 9.00876 22.3051 9.14443C22.6343 9.28011 22.9963 9.31511 23.3454 9.24503C23.6945 9.17494 24.0149 9.00292 24.2662 8.7507C24.5175 8.49849 24.6883 8.17742 24.7571 7.8281C24.8259 7.47878 24.7896 7.1169 24.6527 6.78823C24.5158 6.45956 24.2846 6.17887 23.9882 5.98165C23.6917 5.78443 23.3435 5.67954 22.9875 5.68025C22.5102 5.6812 22.0528 5.87168 21.7159 6.20979C21.3791 6.5479 21.1903 7.00597 21.1911 7.48325ZM7.29806 15.5152C7.30646 19.7692 10.7613 23.2099 15.0144 23.2018C19.2675 23.1937 22.7106 19.7392 22.7025 15.4852C22.6944 11.2312 19.2387 7.78955 14.985 7.79795C10.7313 7.80635 7.28996 11.2618 7.29806 15.5152ZM9.99986 15.5098C9.99791 14.5208 10.2892 13.5535 10.837 12.7302C11.3848 11.9068 12.1645 11.2644 13.0774 10.8842C13.9903 10.5039 14.9954 10.4029 15.9657 10.5939C16.936 10.7849 17.8279 11.2594 18.5286 11.9573C19.2292 12.6552 19.7072 13.5451 19.902 14.5147C20.0969 15.4842 19.9999 16.4898 19.6232 17.4042C19.2466 18.3186 18.6073 19.1007 17.7861 19.6518C16.9649 20.2028 15.9988 20.498 15.0099 20.5C14.3532 20.5013 13.7027 20.3733 13.0956 20.1233C12.4884 19.8732 11.9364 19.506 11.4712 19.0426C11.0059 18.5792 10.6366 18.0287 10.3841 17.4225C10.1316 16.8164 10.0011 16.1664 9.99986 15.5098Z" fill="white"/>
</svg>
